<svg width="61" height="61" viewBox="0 0 61 61" fill="none" xmlns="http://www.w3.org/2000/svg">
<circle cx="30.5" cy="30.5" r="30.5" fill="#2161A3"/>
<path d="M30.5 23C27.3931 23 24.875 24.6781 24.875 26.75C24.875 28.8219 27.3931 30.5 30.5 30.5C33.6069 30.5 36.125 32.1781 36.125 34.25C36.125 36.3219 33.6069 38 30.5 38V23ZM30.5 23C32.5813 23 34.4 23.7538 35.3731 24.875L30.5 23ZM30.5 23V21.125V23ZM30.5 23V38V23ZM30.5 38V39.875V38ZM30.5 38C28.4187 38 26.6 37.2462 25.6269 36.125L30.5 38ZM47.375 30.5C47.375 32.7161 46.9385 34.9104 46.0905 36.9578C45.2424 39.0052 43.9994 40.8654 42.4324 42.4324C40.8654 43.9994 39.0052 45.2424 36.9578 46.0905C34.9104 46.9385 32.7161 47.375 30.5 47.375C28.2839 47.375 26.0896 46.9385 24.0422 46.0905C21.9948 45.2424 20.1346 43.9994 18.5676 42.4324C17.0006 40.8654 15.7576 39.0052 14.9095 36.9578C14.0615 34.9104 13.625 32.7161 13.625 30.5C13.625 26.0245 15.4029 21.7322 18.5676 18.5676C21.7322 15.4029 26.0245 13.625 30.5 13.625C34.9755 13.625 39.2677 15.4029 42.4324 18.5676C45.5971 21.7322 47.375 26.0245 47.375 30.5Z" stroke="white" stroke-width="2" stroke-linecap="round" stroke-linejoin="round"/>
</svg>
