<svg width="68" height="68" viewBox="0 0 68 68" fill="none" xmlns="http://www.w3.org/2000/svg">
<g clip-path="url(#clip0)">
<path d="M34 14.6672C23.035 14.6672 14.1667 23.5355 14.1667 34.5005C14.1667 46.3155 26.69 62.6072 31.8467 68.8122C32.98 70.1722 35.0483 70.1722 36.1817 68.8122C41.31 62.6072 53.8333 46.3155 53.8333 34.5005C53.8333 23.5355 44.965 14.6672 34 14.6672ZM34 41.5838C32.1214 41.5838 30.3197 40.8376 28.9913 39.5092C27.6629 38.1808 26.9167 36.3791 26.9167 34.5005C26.9167 32.6219 27.6629 30.8202 28.9913 29.4918C30.3197 28.1635 32.1214 27.4172 34 27.4172C35.8786 27.4172 37.6803 28.1635 39.0087 29.4918C40.337 30.8202 41.0833 32.6219 41.0833 34.5005C41.0833 36.3791 40.337 38.1808 39.0087 39.5092C37.6803 40.8376 35.8786 41.5838 34 41.5838Z" fill="#EADF8B"/>
</g>
<defs>
<clipPath id="clip0">
<rect width="68" height="68" fill="white" transform="translate(0 0.000488281)"/>
</clipPath>
</defs>
</svg>
